<svg width="33" height="33" viewBox="0 0 33 33" fill="none" xmlns="http://www.w3.org/2000/svg">
<path fill-rule="evenodd" clip-rule="evenodd" d="M16.0106 1.47251C11.102 1.51535 6.70743 4.97443 6.74739 9.55366L6.80021 15.6053C6.80767 16.4608 6.56175 17.2993 6.09343 18.0152L3.19954 22.4392C2.98086 22.7735 2.86603 23.1651 2.86951 23.5646C2.87927 24.6821 3.79307 25.58 4.91055 25.5703L11.5535 25.5123C11.576 28.0896 13.6835 30.1606 16.2607 30.1381C18.838 30.1156 20.909 28.0081 20.8865 25.4309L27.5294 25.3729C28.6469 25.3631 29.5449 24.4493 29.5352 23.3319C29.5317 22.9324 29.41 22.5429 29.1855 22.2125L26.2149 17.8397C25.7341 17.132 25.4736 16.2979 25.4662 15.4424L25.4133 9.39076C25.3734 4.81154 20.9191 1.42968 16.0106 1.47251ZM8.74732 9.5362C8.71981 6.38373 11.8716 3.50871 16.028 3.47244C20.1845 3.43616 23.3859 6.25574 23.4134 9.40821L23.4662 15.4598C23.4771 16.7102 23.8579 17.9293 24.5605 18.9635L27.5312 23.3363C27.5338 23.3402 27.5352 23.3447 27.5352 23.3493C27.5353 23.3544 27.5339 23.3582 27.5339 23.3582C27.5339 23.3582 27.5313 23.3631 27.5285 23.366C27.5257 23.3688 27.5208 23.3715 27.5208 23.3715C27.5208 23.3715 27.5171 23.3729 27.512 23.373L4.8931 23.5704C4.88801 23.5704 4.88426 23.569 4.88426 23.569C4.88426 23.569 4.87933 23.5665 4.87645 23.5636C4.87358 23.5608 4.87095 23.5559 4.87095 23.5559C4.87095 23.5559 4.86948 23.5522 4.86944 23.5471C4.8694 23.5425 4.87073 23.5379 4.87326 23.5341L7.76715 19.1101C8.45161 18.0637 8.81104 16.8381 8.80013 15.5878L8.74732 9.5362ZM18.8866 25.4483L13.5534 25.4949C13.5663 26.9676 14.7706 28.151 16.2433 28.1382C17.716 28.1253 18.8994 26.921 18.8866 25.4483Z" fill="#FBEAEC"/>
</svg>
