<svg width="92" height="27" viewBox="0 0 92 27" fill="none" xmlns="http://www.w3.org/2000/svg">
<path fill-rule="evenodd" clip-rule="evenodd" d="M1.19922 26.1611L4.69423 18.4013L9.28164 15.4388L13.1615 20.0922L17.9396 13.256L20.3127 16.5624L23.1403 13.256L24.6523 18.0471L29.3792 15.4388L31.7427 11.1639L33.8436 15.4388L38.0329 11.1639L41.5535 9.30407L43.0348 13.256L46.9333 10.5473L50.0923 14.7744V6.43222L56.9203 11.1639L61.3244 6.43222L65.0937 8.26084L69.6584 5.22297L73.9771 5.62756L76.6755 1.16113L80.4726 11.1639V8.26084L90.4818 1.45126L91.6884 14.7744V18.7217L91.1885 21.5694L89.1887 24.7373L86.689 26.1611H84.5266H1.19922Z" fill="url(#paint0_linear_1_16283)"/>
<path d="M0.688477 26.1611L5.34476 18.6346L9.88257 15.6235L13.7205 20.4028L18.447 13.4049L20.7944 16.8152L23.5914 13.4049L25.0871 18.2746L29.7629 15.6235L32.1008 11.2785L34.179 15.6235L38.3231 11.2785L41.8056 9.38815L43.2708 13.4049L47.1272 10.7013L50.2521 14.9483V6.46918L57.2239 11.2785L61.3627 6.46918L65.0913 8.32781L69.6066 5.28962L73.8786 5.70085L76.5479 1.16113L80.3039 11.2785V8.32781L90.2049 1.45602" stroke="#166771" stroke-linecap="square"/>
<defs>
<linearGradient id="paint0_linear_1_16283" x1="91.6884" y1="13.6611" x2="1.19922" y2="13.6611" gradientUnits="userSpaceOnUse">
<stop stop-color="#BBE5EB" stop-opacity="0"/>
<stop offset="1" stop-color="#008496"/>
</linearGradient>
</defs>
</svg>
