<svg width="31" height="31" viewBox="0 0 31 31" fill="none" xmlns="http://www.w3.org/2000/svg">
<g filter="url(#filter0_d_1_18475)">
<path fill-rule="evenodd" clip-rule="evenodd" d="M13.3782 13.4919L13.5081 13.6218C15.7457 15.7882 17.6184 16.8056 19.1261 16.674L19.5605 16.2687C20.1785 15.7064 20.6444 15.35 20.9584 15.1994C21.612 14.8859 22.0707 14.8922 23.3094 15.5625C24.939 16.4442 26.0642 17.4691 26.6392 18.0441C27.1731 18.578 27.0072 19.4977 26.8197 19.9057L26.6955 20.1333C26.3619 20.7129 25.1521 22.6249 22.8334 22.9521C21.9523 23.0764 20.8399 22.9624 19.5357 22.5696C16.7419 21.6024 13.9598 19.8297 11.1893 17.2514L10.6966 16.7834L10.692 16.788L10.4542 16.546L10.212 16.308L10.2166 16.3034L9.74857 15.8107C7.17035 13.0402 5.39763 10.2581 4.43042 7.46428C4.03761 6.16006 3.92363 5.04772 4.04795 4.16655C4.39822 1.68383 6.56566 0.472407 6.96871 0.246715L7.00964 0.223616C7.35849 0.0224473 8.38095 -0.214146 8.95591 0.360816L9.22814 0.640783C9.82079 1.26756 10.6818 2.29378 11.4375 3.69059C12.1078 4.92934 12.1141 5.38801 11.8006 6.04161C11.6165 6.42534 11.125 7.03612 10.326 7.87394C10.1944 9.38161 11.2118 11.2543 13.3782 13.4919Z" fill="#009CBC"/>
</g>
<defs>
<filter id="filter0_d_1_18475" x="0" y="0" width="31" height="31" filterUnits="userSpaceOnUse" color-interpolation-filters="sRGB">
<feFlood flood-opacity="0" result="BackgroundImageFix"/>
<feColorMatrix in="SourceAlpha" type="matrix" values="0 0 0 0 0 0 0 0 0 0 0 0 0 0 0 0 0 0 127 0" result="hardAlpha"/>
<feOffset dy="4"/>
<feGaussianBlur stdDeviation="2"/>
<feComposite in2="hardAlpha" operator="out"/>
<feColorMatrix type="matrix" values="0 0 0 0 0 0 0 0 0 0 0 0 0 0 0 0 0 0 0.25 0"/>
<feBlend mode="normal" in2="BackgroundImageFix" result="effect1_dropShadow_1_18475"/>
<feBlend mode="normal" in="SourceGraphic" in2="effect1_dropShadow_1_18475" result="shape"/>
</filter>
</defs>
</svg>
