<svg width="21" height="21" viewBox="0 0 21 21" fill="none" xmlns="http://www.w3.org/2000/svg">
<path fill-rule="evenodd" clip-rule="evenodd" d="M11.2499 3C11.0183 3 10.7896 3.00934 10.5639 3.02794C10.1511 3.06195 9.78883 2.75486 9.75482 2.34205C9.72081 1.92923 10.0279 1.56701 10.4407 1.533C10.7081 1.51097 10.9779 1.5 11.2499 1.5C16.6329 1.5 20.9999 5.86704 20.9999 11.25C20.9999 16.633 16.6329 21 11.2499 21C9.18449 20.9999 7.17234 20.3442 5.50343 19.1273C3.83452 17.9104 2.59498 16.1951 1.96337 14.2286C1.83671 13.8342 2.05373 13.4118 2.4481 13.2851C2.84247 13.1585 3.26486 13.3755 3.39152 13.7699C3.926 15.434 4.97492 16.8855 6.38719 17.9153C7.79944 18.945 9.50212 19.4999 11.2499 19.5M11.2499 3C15.8045 3 19.4999 6.69546 19.4999 11.25L11.2499 3ZM19.4999 11.25C19.4999 15.8045 15.8045 19.5 11.2499 19.5L19.4999 11.25Z" fill="#1B808E"/>
<path fill-rule="evenodd" clip-rule="evenodd" d="M1.0784e-05 10.4995C0.000305827 4.70049 4.70098 0 10.5 0C10.9142 0 11.25 0.335786 11.25 0.75V10.5C11.25 10.7957 11.0763 11.0638 10.8064 11.1846L1.90437 15.1689C1.52631 15.3381 1.08266 15.1689 0.913432 14.7908C0.309199 13.4409 -0.00211205 11.9784 1.0784e-05 10.4995ZM9.75001 1.5308C5.13018 1.91188 1.50001 5.78178 1.50001 10.5L1.50001 10.5011C1.4985 11.5175 1.66978 12.5249 2.00479 13.4806L9.75001 10.014V1.5308Z" fill="#1B808E"/>
</svg>
