<svg width="16" height="16" viewBox="0 0 16 16" fill="none" xmlns="http://www.w3.org/2000/svg">
<g clip-path="url(#clip0_192_4383)">
<path d="M2.66699 5.33366V4.00033C2.66699 3.6467 2.80747 3.30756 3.05752 3.05752C3.30756 2.80747 3.6467 2.66699 4.00033 2.66699H5.33366" stroke="#0F172A" stroke-linecap="round" stroke-linejoin="round"/>
<path d="M2.66699 10.667V12.0003C2.66699 12.3539 2.80747 12.6931 3.05752 12.9431C3.30756 13.1932 3.6467 13.3337 4.00033 13.3337H5.33366" stroke="#0F172A" stroke-linecap="round" stroke-linejoin="round"/>
<path d="M10.667 2.66699H12.0003C12.3539 2.66699 12.6931 2.80747 12.9431 3.05752C13.1932 3.30756 13.3337 3.6467 13.3337 4.00033V5.33366" stroke="#0F172A" stroke-linecap="round" stroke-linejoin="round"/>
<path d="M10.667 13.3337H12.0003C12.3539 13.3337 12.6931 13.1932 12.9431 12.9431C13.1932 12.6931 13.3337 12.3539 13.3337 12.0003V10.667" stroke="#0F172A" stroke-linecap="round" stroke-linejoin="round"/>
<path d="M4.66699 7.99952C6.88899 4.88818 9.11166 4.88818 11.3337 7.99952" stroke="#0F172A" stroke-linecap="round" stroke-linejoin="round"/>
<path d="M4.66699 8C6.88899 11.1113 9.11166 11.1113 11.3337 8" stroke="#0F172A" stroke-linecap="round" stroke-linejoin="round"/>
<path d="M7.999 8H7.99316" stroke="#0F172A" stroke-width="2" stroke-linecap="round" stroke-linejoin="round"/>
</g>
<defs>
<clipPath id="clip0_192_4383">
<rect width="16" height="16" fill="white"/>
</clipPath>
</defs>
</svg>
