<svg width="29" height="29" viewBox="0 0 29 29" fill="none" xmlns="http://www.w3.org/2000/svg">
<path d="M6.81028 13.5431L14.5001 21.2329L22.1899 13.5431C22.8698 12.8632 23.2518 11.9411 23.2518 10.9796C23.2518 10.0181 22.8698 9.09599 22.1899 8.41611C21.8533 8.07947 21.4537 7.81243 21.0138 7.63024C20.574 7.44805 20.1025 7.35428 19.6265 7.35428C18.665 7.35428 17.7429 7.73623 17.063 8.41611L14.5001 10.979L11.9372 8.41732C11.2556 7.74656 10.3366 7.37232 9.38029 7.3761C8.42401 7.37988 7.50795 7.76138 6.83167 8.4375C6.15538 9.11363 5.77366 10.0296 5.76966 10.9859C5.76565 11.9422 6.13968 12.8613 6.81028 13.5431ZM13.6458 6.70632L14.5001 7.56061L15.3544 6.70632C15.9145 6.14127 16.5807 5.69241 17.3148 5.38552C18.0489 5.07864 18.8363 4.91976 19.6319 4.91802C20.4276 4.91628 21.2157 5.0717 21.9511 5.37537C22.6865 5.67904 23.3547 6.12497 23.9173 6.68757C24.4799 7.25016 24.9258 7.91834 25.2295 8.65374C25.5331 9.38914 25.6886 10.1773 25.6868 10.9729C25.6851 11.7685 25.5262 12.556 25.2193 13.29C24.9124 14.0241 24.4636 14.6903 23.8985 15.2504L15.3556 23.7946C15.2434 23.9069 15.1101 23.996 14.9634 24.0568C14.8167 24.1177 14.6595 24.149 14.5007 24.149C14.3419 24.149 14.1847 24.1177 14.038 24.0568C13.8913 23.996 13.758 23.9069 13.6458 23.7946L5.10169 15.2517C4.52896 14.6933 4.07278 14.0268 3.75963 13.2908C3.44648 12.5548 3.28259 11.764 3.27747 10.9642C3.27234 10.1643 3.42609 9.37145 3.72978 8.6315C4.03347 7.89155 4.48107 7.21927 5.0466 6.65365C5.61214 6.08804 6.28436 5.64035 7.02427 5.33655C7.76417 5.03275 8.55704 4.8789 9.35687 4.88391C10.1567 4.88892 10.9476 5.0527 11.6836 5.36574C12.4197 5.67879 13.0862 6.13487 13.6446 6.70753L13.6458 6.70632Z" fill="#035D9F" fill-opacity="0.87"/>
</svg>
