<svg width="29" height="29" viewBox="0 0 29 29" fill="none" xmlns="http://www.w3.org/2000/svg">
<path d="M6.81028 13.5421L14.5001 21.2319L22.1899 13.5421C22.8698 12.8622 23.2518 11.9401 23.2518 10.9786C23.2518 10.0171 22.8698 9.09501 22.1899 8.41513C21.8533 8.07849 21.4537 7.81145 21.0138 7.62927C20.574 7.44708 20.1025 7.35331 19.6265 7.35331C18.665 7.35331 17.7429 7.73526 17.063 8.41513L14.5001 10.978L11.9372 8.41634C11.2556 7.74559 10.3366 7.37134 9.38029 7.37512C8.42401 7.3789 7.50795 7.7604 6.83167 8.43653C6.15538 9.11265 5.77366 10.0286 5.76966 10.9849C5.76565 11.9412 6.13968 12.8603 6.81028 13.5421ZM13.6458 6.70534L14.5001 7.55963L15.3544 6.70534C15.9145 6.14029 16.5807 5.69143 17.3148 5.38455C18.0489 5.07766 18.8363 4.91879 19.6319 4.91704C20.4276 4.9153 21.2157 5.07073 21.9511 5.37439C22.6865 5.67806 23.3547 6.124 23.9173 6.68659C24.4799 7.24919 24.9258 7.91736 25.2295 8.65276C25.5331 9.38816 25.6886 10.1763 25.6868 10.9719C25.6851 11.7676 25.5262 12.555 25.2193 13.2891C24.9124 14.0231 24.4636 14.6893 23.8985 15.2495L15.3556 23.7936C15.2434 23.9059 15.1101 23.9951 14.9634 24.0559C14.8167 24.1167 14.6595 24.148 14.5007 24.148C14.3419 24.148 14.1847 24.1167 14.038 24.0559C13.8913 23.9951 13.758 23.9059 13.6458 23.7936L5.10169 15.2507C4.52896 14.6924 4.07278 14.0259 3.75963 13.2899C3.44648 12.5539 3.28259 11.763 3.27747 10.9632C3.27234 10.1634 3.42609 9.37047 3.72978 8.63052C4.03347 7.89058 4.48107 7.21829 5.0466 6.65268C5.61214 6.08706 6.28436 5.63937 7.02427 5.33557C7.76417 5.03177 8.55704 4.87792 9.35687 4.88293C10.1567 4.88794 10.9476 5.05172 11.6836 5.36477C12.4197 5.67781 13.0862 6.13389 13.6446 6.70655L13.6458 6.70534Z" fill="#035D9F" fill-opacity="0.87"/>
</svg>
