<svg width="95" height="28" viewBox="0 0 95 28" fill="none" xmlns="http://www.w3.org/2000/svg">
<path fill-rule="evenodd" clip-rule="evenodd" d="M0.657314 26.7685L5.28553 16.0423L10.3597 12.2451L14.7858 12.2333L19.9481 9.43181L22.1355 4.37879L25.7121 9.41642L27.4042 15.5309L32.6343 12.1857L35.2391 6.71903L37.5821 12.1725L42.2107 6.70041L46.1063 4.31479L47.7615 9.35754L50.7709 11.2888L55.5887 11.2759L58.8325 6.65603L62.7087 4.27046L68.0089 0.588531L72.1928 2.91278L75.5753 4.2361L81.3128 6.59601L83.6525 4.21454L89.2474 6.57482L89.2375 2.86727L93.7341 4.18762L93.7313 26.7574L0.657314 26.7685Z" fill="url(#paint0_linear_1_16268)"/>
<path d="M0.657314 26.7685L5.27847 16.0423L10.345 12.2452L14.7643 12.2334L19.9188 9.43188L22.1028 4.37888L25.674 9.41652L27.3637 15.531L32.5857 12.1858L35.1867 6.71917L37.5261 12.1726L42.1477 6.70058L46.0373 4.31497L47.69 9.35773L50.6949 11.289L55.5054 11.2762L58.7443 6.65627L62.6146 4.27071L67.9068 0.588804L72.0843 2.91307L75.4616 4.23641L81.1905 6.59633L83.5266 4.21487L89.113 6.57518L89.1031 2.86763L93.593 4.18799" stroke="#00B42D" stroke-linecap="square"/>
<defs>
<linearGradient id="paint0_linear_1_16268" x1="0.587891" y1="0.768555" x2="0.657314" y2="26.7685" gradientUnits="userSpaceOnUse">
<stop stop-color="white"/>
<stop offset="1" stop-color="#B5F8C6" stop-opacity="0"/>
</linearGradient>
</defs>
</svg>
