<svg width="27" height="24" viewBox="0 0 27 24" fill="none" xmlns="http://www.w3.org/2000/svg">
<path fill-rule="evenodd" clip-rule="evenodd" d="M13.9268 0.530892C15.0606 -0.603071 16.9999 0.199807 17 1.80335V22.1119C16.9999 23.7156 15.0607 24.5184 13.9268 23.3844L8.00098 17.4576H2C0.895431 17.4576 0 16.5622 0 15.4577V8.45765C2.99253e-05 7.35311 0.895449 6.45765 2 6.45765H8.00098L13.9268 0.530892ZM20.1143 2.70081C20.4725 2.2805 21.1031 2.2303 21.5234 2.58851C24.5141 5.13719 26.0342 8.28184 26.0342 11.9577C26.0342 15.6358 24.5122 18.7642 21.5176 21.275C21.0944 21.6299 20.4632 21.5742 20.1084 21.151C19.7539 20.7278 19.8095 20.0976 20.2324 19.7428C22.7827 17.6047 24.0342 15.0321 24.0342 11.9577C24.0342 8.88091 22.7808 6.28668 20.2266 4.10999C19.8062 3.75177 19.756 3.12116 20.1143 2.70081Z" fill="white"/>
</svg>
