<svg width="91" height="27" viewBox="0 0 91 27" fill="none" xmlns="http://www.w3.org/2000/svg">
<path fill-rule="evenodd" clip-rule="evenodd" d="M0.707031 25.9932L7.37981 18.8423L9.44106 21.6L15.9745 17.5619L24.6254 16.842L29.2144 11.5854L31.4823 9.19023L34.6581 12.421L43.0047 0.993164L48.0713 12.421L51.3478 3.54352L53.797 13.4932L56.2507 6.55575L60.6034 14.6963L64.8573 8.43707L67.9231 16.842L72.2461 14.6963L75.0524 12.421L77.9948 16.842L82.5241 13.4932L87.6027 18.8423L86.7402 22.8234L89.707 25.9932" fill="url(#paint0_linear_1_16276)"/>
<path d="M0.707031 25.9932L7.37981 18.8423L9.44106 21.6L15.9745 17.5619L24.6254 16.842L29.2144 11.5854L31.4823 9.19023L34.6581 12.421L43.0047 0.993164L48.0713 12.421L51.3478 3.54352L53.797 13.4932L56.2507 6.55575L60.6034 14.6963L64.8573 8.43707L67.9231 16.842L72.2461 14.6963L75.0524 12.421L77.9948 16.842L82.5241 13.4932L87.6027 18.8423L86.7402 22.8234L89.707 25.9932" stroke="#ED2939" stroke-linecap="square"/>
<path fill-rule="evenodd" clip-rule="evenodd" d="M0.707031 25.9932L7.37981 18.8423L9.44106 21.6L15.9745 17.5619L24.6254 16.842L28.7397 12.5506L31.4823 9.19023L34.5982 12.5506L43.0047 0.993164L48.0713 12.421L51.3478 3.54352L53.8762 14.6963L56.2507 6.55575L60.4624 15.0638L64.8573 8.43707L67.9231 16.842L72.2461 14.6963L75.1504 11.5309L77.9948 16.842L82.5241 13.4932L87.6027 18.8423L86.7402 22.8234L88.1003 24.2765L89.707 25.9932" fill="url(#paint1_linear_1_16276)"/>
<defs>
<linearGradient id="paint0_linear_1_16276" x1="0.707031" y1="0.993164" x2="0.707031" y2="25.9932" gradientUnits="userSpaceOnUse">
<stop offset="0.326923" stop-color="white"/>
<stop offset="1" stop-color="#ED2939" stop-opacity="0"/>
</linearGradient>
<linearGradient id="paint1_linear_1_16276" x1="0.707031" y1="0.993164" x2="0.707031" y2="25.9932" gradientUnits="userSpaceOnUse">
<stop offset="0.326923" stop-color="white"/>
<stop offset="1" stop-color="#ED2939" stop-opacity="0"/>
</linearGradient>
</defs>
</svg>
