<svg width="30" height="34" viewBox="0 0 30 34" fill="none" xmlns="http://www.w3.org/2000/svg">
<path fill-rule="evenodd" clip-rule="evenodd" d="M6.09375 7.4375C5.72079 7.4375 5.3631 7.60541 5.09938 7.9043C4.83566 8.20318 4.6875 8.60856 4.6875 9.03125V24.9688C4.6875 25.3914 4.83566 25.7968 5.09938 26.0957C5.3631 26.3946 5.72079 26.5625 6.09375 26.5625H15.4688C15.8417 26.5625 16.1994 26.3946 16.4631 26.0957C16.7268 25.7968 16.875 25.3914 16.875 24.9688V22.3125C16.875 21.7257 17.2947 21.25 17.8125 21.25C18.3303 21.25 18.75 21.7257 18.75 22.3125V24.9688C18.75 25.955 18.4043 26.9009 17.7889 27.5983C17.1736 28.2957 16.339 28.6875 15.4688 28.6875H6.09375C5.22351 28.6875 4.38891 28.2957 3.77356 27.5983C3.1582 26.9009 2.8125 25.955 2.8125 24.9688V9.03125C2.8125 8.04498 3.1582 7.0991 3.77356 6.4017C4.38891 5.7043 5.22351 5.3125 6.09375 5.3125H15C15.8803 5.3125 16.783 5.70679 17.4698 6.31668C18.1531 6.92338 18.75 7.86591 18.75 9.03125V11.6875C18.75 12.2743 18.3303 12.75 17.8125 12.75C17.2947 12.75 16.875 12.2743 16.875 11.6875V9.03125C16.875 8.72968 16.7129 8.34408 16.3134 7.98939C15.9176 7.63788 15.414 7.4375 15 7.4375H6.09375Z" fill="#035D9F"/>
<path fill-rule="evenodd" clip-rule="evenodd" d="M20.8996 10.9362C21.2657 10.5213 21.8593 10.5213 22.2254 10.9362L26.9129 16.2487C27.279 16.6636 27.279 17.3364 26.9129 17.7513L22.2254 23.0638C21.8593 23.4787 21.2657 23.4787 20.8996 23.0638C20.5335 22.6489 20.5335 21.9761 20.8996 21.5612L24.9242 17L20.8996 12.4388C20.5335 12.0239 20.5335 11.3511 20.8996 10.9362Z" fill="#035D9F"/>
<path fill-rule="evenodd" clip-rule="evenodd" d="M9.375 17C9.375 16.4132 9.79473 15.9375 10.3125 15.9375H25.3125C25.8303 15.9375 26.25 16.4132 26.25 17C26.25 17.5868 25.8303 18.0625 25.3125 18.0625H10.3125C9.79473 18.0625 9.375 17.5868 9.375 17Z" fill="#035D9F"/>
</svg>
