<svg width="29" height="29" viewBox="0 0 29 29" fill="none" xmlns="http://www.w3.org/2000/svg">
<g clip-path="url(#clip0_1_13375)">
<path d="M14.5 25.375C20.5061 25.375 25.375 20.5061 25.375 14.5C25.375 8.4939 20.5061 3.625 14.5 3.625C8.4939 3.625 3.625 8.4939 3.625 14.5C3.625 20.5061 8.4939 25.375 14.5 25.375Z" stroke="#035D9F" stroke-width="2" stroke-linecap="round" stroke-linejoin="round"/>
<path d="M10.875 12.084H10.8863" stroke="#035D9F" stroke-width="2" stroke-linecap="round" stroke-linejoin="round"/>
<path d="M18.125 12.084H18.1363" stroke="#035D9F" stroke-width="2" stroke-linecap="round" stroke-linejoin="round"/>
<path d="M11.4785 18.4276C11.8723 18.0257 12.3423 17.7064 12.861 17.4884C13.3797 17.2705 13.9367 17.1582 14.4993 17.1582C15.062 17.1582 15.619 17.2705 16.1377 17.4884C16.6564 17.7064 17.1264 18.0257 17.5202 18.4276" stroke="#035D9F" stroke-width="2" stroke-linecap="round" stroke-linejoin="round"/>
</g>
<defs>
<clipPath id="clip0_1_13375">
<rect width="29" height="29" fill="white"/>
</clipPath>
</defs>
</svg>
