<svg width="16" height="16" viewBox="0 0 16 16" fill="none" xmlns="http://www.w3.org/2000/svg">
<g clip-path="url(#clip0_1_16836)">
<path d="M2.66699 5.33333V4C2.66699 3.64638 2.80747 3.30724 3.05752 3.05719C3.30756 2.80714 3.6467 2.66666 4.00033 2.66666H5.33366" stroke="#0F172A" stroke-linecap="round" stroke-linejoin="round"/>
<path d="M2.66699 10.6667V12C2.66699 12.3536 2.80747 12.6928 3.05752 12.9428C3.30756 13.1929 3.6467 13.3333 4.00033 13.3333H5.33366" stroke="#0F172A" stroke-linecap="round" stroke-linejoin="round"/>
<path d="M10.667 2.66666H12.0003C12.3539 2.66666 12.6931 2.80714 12.9431 3.05719C13.1932 3.30724 13.3337 3.64638 13.3337 4V5.33333" stroke="#0F172A" stroke-linecap="round" stroke-linejoin="round"/>
<path d="M10.667 13.3333H12.0003C12.3539 13.3333 12.6931 13.1929 12.9431 12.9428C13.1932 12.6928 13.3337 12.3536 13.3337 12V10.6667" stroke="#0F172A" stroke-linecap="round" stroke-linejoin="round"/>
<path d="M4.66699 8C6.88899 4.88867 9.11166 4.88867 11.3337 8" stroke="#0F172A" stroke-linecap="round" stroke-linejoin="round"/>
<path d="M4.66699 8C6.88899 11.1113 9.11166 11.1113 11.3337 8" stroke="#0F172A" stroke-linecap="round" stroke-linejoin="round"/>
<path d="M7.999 8H7.99316" stroke="#0F172A" stroke-width="2" stroke-linecap="round" stroke-linejoin="round"/>
</g>
<defs>
<clipPath id="clip0_1_16836">
<rect width="16" height="16" fill="white"/>
</clipPath>
</defs>
</svg>
