<svg width="33" height="33" viewBox="0 0 33 33" fill="none" xmlns="http://www.w3.org/2000/svg">
<path d="M16.5 2.75C8.90608 2.75 2.75 8.90608 2.75 16.5C2.75 24.0938 8.90608 30.25 16.5 30.25C24.0938 30.25 30.25 24.0938 30.25 16.5C30.25 8.90608 24.0938 2.75 16.5 2.75Z" stroke="#56101A" stroke-width="1.5" stroke-linecap="round" stroke-linejoin="round"/>
<path d="M5.87305 25.2253C5.87305 25.2253 8.93795 21.3125 16.5004 21.3125C24.0629 21.3125 27.1279 25.2253 27.1279 25.2253" stroke="#56101A" stroke-width="1.5" stroke-linecap="round" stroke-linejoin="round"/>
<path d="M16.5 16.5C18.7782 16.5 20.625 14.6532 20.625 12.375C20.625 10.0968 18.7782 8.25 16.5 8.25C14.2218 8.25 12.375 10.0968 12.375 12.375C12.375 14.6532 14.2218 16.5 16.5 16.5Z" stroke="#56101A" stroke-width="1.5" stroke-linecap="round" stroke-linejoin="round"/>
</svg>
