<svg width="24" height="24" viewBox="0 0 24 24" fill="none" xmlns="http://www.w3.org/2000/svg">
<path d="M11.5 2.5C16.4706 2.5 20.5 6.52944 20.5 11.5C20.5 16.4706 16.4706 20.5 11.5 20.5C6.52944 20.5 2.5 16.4706 2.5 11.5C2.5 6.52944 6.52944 2.5 11.5 2.5Z" fill="#AB2133" stroke="#AB2133"/>
<path d="M19.3086 19.2983C19.3716 19.2404 19.4743 19.2278 19.5576 19.2817L19.5928 19.3101L21.4463 21.1636C21.5151 21.2326 21.5242 21.3536 21.4463 21.4429C21.3995 21.4814 21.3468 21.5004 21.2998 21.5005C21.2455 21.5005 21.1945 21.4781 21.1631 21.4468L19.3027 19.5864C19.232 19.5154 19.2231 19.3881 19.3086 19.2983Z" fill="#AB2133" stroke="#AB2133"/>
</svg>
