<svg width="24" height="24" viewBox="0 0 24 24" fill="none" xmlns="http://www.w3.org/2000/svg">
<path d="M12.7495 17.2499C12.7495 17.4488 12.6705 17.6396 12.5298 17.7802C12.3892 17.9209 12.1984 17.9999 11.9995 17.9999C11.8006 17.9999 11.6098 17.9209 11.4692 17.7802C11.3285 17.6396 11.2495 17.4488 11.2495 17.2499V11.5604L9.53048 13.2809C9.38965 13.4217 9.19865 13.5008 8.99948 13.5008C8.80032 13.5008 8.60931 13.4217 8.46848 13.2809C8.32765 13.14 8.24854 12.949 8.24854 12.7499C8.24854 12.5507 8.32765 12.3597 8.46848 12.2189L11.4685 9.21888C11.5382 9.14903 11.6209 9.09362 11.712 9.05581C11.8032 9.018 11.9008 8.99854 11.9995 8.99854C12.0981 8.99854 12.1958 9.018 12.2869 9.05581C12.3781 9.09362 12.4608 9.14903 12.5305 9.21888L15.5305 12.2189C15.6713 12.3597 15.7504 12.5507 15.7504 12.7499C15.7504 12.949 15.6713 13.14 15.5305 13.2809C15.3897 13.4217 15.1986 13.5008 14.9995 13.5008C14.8003 13.5008 14.6093 13.4217 14.4685 13.2809L12.7495 11.5604V17.2499Z" fill="#0F172A"/>
<path d="M21 21V6.75L14.25 0H6C5.20435 0 4.44129 0.316071 3.87868 0.87868C3.31607 1.44129 3 2.20435 3 3V21C3 21.7957 3.31607 22.5587 3.87868 23.1213C4.44129 23.6839 5.20435 24 6 24H18C18.7956 24 19.5587 23.6839 20.1213 23.1213C20.6839 22.5587 21 21.7957 21 21ZM14.25 4.5C14.25 5.09674 14.4871 5.66903 14.909 6.09099C15.331 6.51295 15.9033 6.75 16.5 6.75H19.5V21C19.5 21.3978 19.342 21.7794 19.0607 22.0607C18.7794 22.342 18.3978 22.5 18 22.5H6C5.60218 22.5 5.22064 22.342 4.93934 22.0607C4.65804 21.7794 4.5 21.3978 4.5 21V3C4.5 2.60218 4.65804 2.22064 4.93934 1.93934C5.22064 1.65804 5.60218 1.5 6 1.5H14.25V4.5Z" fill="#0F172A"/>
</svg>
