<svg width="35" height="24" viewBox="0 0 35 24" fill="none" xmlns="http://www.w3.org/2000/svg">
<g filter="url(#filter0_d_1_18471)">
<path fill-rule="evenodd" clip-rule="evenodd" d="M19.2 0C21.2987 0 23 1.53502 23 3.42857V12.5714C23 14.465 21.2987 16 19.2 16H7.8C5.70132 16 4 14.465 4 12.5714V3.42857C4 1.53502 5.70132 0 7.8 0H19.2ZM30.8658 3.57539C30.9538 3.70944 31 3.86025 31 4.0136V11.9866C31 12.4849 30.5224 12.8889 29.9333 12.8889C29.7521 12.8889 29.5738 12.8498 29.4153 12.7753L25.6858 11.0226C25.2625 10.8237 25 10.4463 25 10.0367V5.9635C25 5.55388 25.2625 5.17646 25.6858 4.97754L29.4153 3.22483C29.9303 2.98281 30.5797 3.13977 30.8658 3.57539Z" fill="#24ABBD"/>
</g>
<defs>
<filter id="filter0_d_1_18471" x="0" y="0" width="35" height="24" filterUnits="userSpaceOnUse" color-interpolation-filters="sRGB">
<feFlood flood-opacity="0" result="BackgroundImageFix"/>
<feColorMatrix in="SourceAlpha" type="matrix" values="0 0 0 0 0 0 0 0 0 0 0 0 0 0 0 0 0 0 127 0" result="hardAlpha"/>
<feOffset dy="4"/>
<feGaussianBlur stdDeviation="2"/>
<feComposite in2="hardAlpha" operator="out"/>
<feColorMatrix type="matrix" values="0 0 0 0 0 0 0 0 0 0 0 0 0 0 0 0 0 0 0.25 0"/>
<feBlend mode="normal" in2="BackgroundImageFix" result="effect1_dropShadow_1_18471"/>
<feBlend mode="normal" in="SourceGraphic" in2="effect1_dropShadow_1_18471" result="shape"/>
</filter>
</defs>
</svg>
